<?xml version="1.0" encoding="UTF-8" standalone="no" ?>
<!DOCTYPE svg PUBLIC "-//W3C//DTD SVG 1.1//EN" "http://www.w3.org/Graphics/SVG/1.1/DTD/svg11.dtd">
<svg xmlns="http://www.w3.org/2000/svg" xmlns:xlink="http://www.w3.org/1999/xlink" version="1.1" width="1080" height="1080" viewBox="0 0 1080 1080" xml:space="preserve">
<desc>Created with Fabric.js 5.2.4</desc>
<defs>
</defs>
<g transform="matrix(1 0 0 1 540 540)" id="0dfe040c-429b-42ac-973e-f0be49d0424b"  >
<rect style="stroke: none; stroke-width: 1; stroke-dasharray: none; stroke-linecap: butt; stroke-dashoffset: 0; stroke-linejoin: miter; stroke-miterlimit: 4; fill: rgb(255,255,255); fill-rule: nonzero; opacity: 1; visibility: hidden;" vector-effect="non-scaling-stroke"  x="-540" y="-540" rx="0" ry="0" width="1080" height="1080" />
</g>
<g transform="matrix(1 0 0 1 540 540)" id="ac0b2df6-4fc5-42e9-9d0d-31bedd57c5c6"  >
</g>
<g transform="matrix(2.68 0 0 2.68 540 540)"  >
<g style=""   >
		<g transform="matrix(1 0 0 1 -165.56 0)" id="SvgjsG1028"  >
<path style="stroke: none; stroke-width: 1; stroke-dasharray: none; stroke-linecap: butt; stroke-dashoffset: 0; stroke-linejoin: miter; stroke-miterlimit: 4; fill: rgb(0,74,172); fill-rule: nonzero; opacity: 1;" vector-effect="non-scaling-stroke"  transform=" translate(-36, -46.5)" d="M 0 0 L 72 0 L 72 93 L 0 93 L 0 93 z M 4 4 L 4 89 L 68 89 L 68 4 z" stroke-linecap="round" />
</g>
		<g transform="matrix(0.72 0 0 0.72 -165.11 -0.22)" id="SvgjsG1029"  >
<path style="stroke: none; stroke-width: 1; stroke-dasharray: none; stroke-linecap: butt; stroke-dashoffset: 0; stroke-linejoin: miter; stroke-miterlimit: 4; fill: rgb(0,74,172); fill-rule: nonzero; opacity: 1;" vector-effect="non-scaling-stroke"  transform=" translate(-50, -49.9)" d="M 30.291 64.484 C 29.971 66.235 29.628 67.987 29.256 69.738 C 28.887 71.491 28.54 73.25 28.223 75.02 C 27.906 76.788 27.741999999999997 78.613 27.741999999999997 80.50099999999999 C 27.741999999999997 82.55799999999999 28.066 84.457 28.705 86.21 C 29.343 87.961 30.269 89.485 31.482 90.785 C 32.695 92.082 34.189 93.092 35.957 93.817 C 37.725 94.53999999999999 39.72 94.90199999999999 41.942 94.90199999999999 L 44.723 94.90199999999999 L 44.723 92.78 C 44.723 92.413 44.577999999999996 92.123 44.293 91.923 C 44.004 91.721 43.725 91.618 43.455 91.618 L 41.791 91.618 C 40.340999999999994 91.618 39.019999999999996 91.366 37.82299999999999 90.86 C 36.626999999999995 90.354 35.602999999999994 89.631 34.742999999999995 88.688 C 33.88399999999999 87.742 33.206999999999994 86.601 32.71999999999999 85.251 C 32.22899999999999 83.902 31.98599999999999 82.406 31.98599999999999 80.75200000000001 C 31.98599999999999 78.86900000000001 32.13599999999999 77.01200000000001 32.44099999999999 75.19500000000001 C 32.74299999999999 73.373 33.07999999999999 71.57300000000001 33.45199999999999 69.78800000000001 C 33.82099999999999 68.004 34.15699999999999 66.22600000000001 34.46199999999999 64.45800000000001 C 34.76699999999999 62.686000000000014 34.91799999999999 60.91000000000001 34.91799999999999 59.125000000000014 C 34.91799999999999 57.88000000000002 34.70599999999999 56.744000000000014 34.285999999999994 55.716000000000015 C 33.864999999999995 54.68800000000002 33.306999999999995 53.77900000000002 32.617999999999995 52.987000000000016 C 31.928999999999995 52.195000000000014 31.135999999999996 51.536000000000016 30.243999999999996 51.01600000000002 C 29.351999999999997 50.49400000000002 28.418999999999997 50.13100000000002 27.436999999999998 49.93100000000002 C 28.418 49.69200000000002 29.351999999999997 49.31400000000002 30.243999999999996 48.792000000000016 C 31.132999999999996 48.268000000000015 31.928999999999995 47.62300000000002 32.617999999999995 46.84600000000002 C 33.306999999999995 46.07200000000002 33.864999999999995 45.164000000000016 34.285999999999994 44.118000000000016 C 34.705999999999996 43.07400000000002 34.91799999999999 41.926000000000016 34.91799999999999 40.680000000000014 C 34.91799999999999 38.89500000000002 34.76699999999999 37.119000000000014 34.46199999999999 35.350000000000016 C 34.15699999999999 33.58100000000002 33.82099999999999 31.809000000000015 33.45199999999999 30.041000000000015 C 33.07999999999999 28.273000000000014 32.74299999999999 26.478000000000016 32.44099999999999 24.661000000000016 C 32.13599999999999 22.841000000000015 31.98599999999999 20.974000000000014 31.98599999999999 19.052000000000014 C 31.98599999999999 17.400000000000013 32.22899999999999 15.903000000000013 32.71999999999999 14.553000000000015 C 33.206999999999994 13.209000000000016 33.88399999999999 12.062000000000015 34.742999999999995 11.119000000000014 C 35.602999999999994 10.174000000000014 36.626999999999995 9.450000000000014 37.82299999999999 8.945000000000014 C 39.01899999999999 8.439000000000014 40.340999999999994 8.188000000000015 41.791 8.188000000000015 L 43.455 8.188000000000015 C 43.725 8.188000000000015 44.004 8.084000000000016 44.293 7.8840000000000146 C 44.577999999999996 7.682000000000015 44.723 7.394000000000014 44.723 7.024000000000014 L 44.723 4.902 L 41.942 4.902 C 39.719 4.902 37.724000000000004 5.265000000000001 35.957 5.988 C 34.189 6.716 32.695 7.723000000000001 31.482 9.024000000000001 C 30.269 10.318000000000001 29.342 11.845 28.705 13.596 C 28.066 15.347 27.741999999999997 17.252 27.741999999999997 19.305 C 27.741999999999997 21.192 27.906 23.018 28.223 24.786 C 28.54 26.559 28.887 28.319000000000003 29.256 30.071 C 29.628 31.822000000000003 29.971 33.573 30.291 35.322 C 30.615000000000002 37.076 30.772000000000002 38.879000000000005 30.772000000000002 40.729 C 30.772000000000002 41.844 30.586000000000002 42.864 30.217000000000002 43.788 C 29.845000000000002 44.714 29.316000000000003 45.522999999999996 28.626 46.214 C 27.936 46.905 27.103 47.437 26.127000000000002 47.806 C 25.146 48.178 24.071 48.361 22.891000000000002 48.361 L 22.891000000000002 51.440999999999995 C 24.072000000000003 51.440999999999995 25.146 51.626999999999995 26.127000000000002 52.001 C 27.103 52.372 27.937 52.900999999999996 28.626 53.592999999999996 C 29.315 54.282999999999994 29.845000000000002 55.089999999999996 30.217000000000002 56.01499999999999 C 30.586000000000002 56.943999999999996 30.772000000000002 57.96399999999999 30.772000000000002 59.074999999999996 C 30.772 60.926 30.615 62.729 30.291 64.484 z M 69.832 56.014 C 70.19999999999999 55.09 70.73299999999999 54.284000000000006 71.42599999999999 53.594 C 72.11299999999999 52.902 72.93999999999998 52.371 73.90299999999999 52.002 C 74.862 51.628 75.92999999999999 51.441 77.10699999999999 51.441 L 77.10699999999999 48.362 C 75.92999999999998 48.362 74.86199999999998 48.177 73.90299999999999 47.807 C 72.94 47.437000000000005 72.11299999999999 46.906 71.42599999999999 46.215 C 70.734 45.525000000000006 70.19999999999999 44.715 69.832 43.789 C 69.463 42.864000000000004 69.276 41.843 69.276 40.728 C 69.276 38.879000000000005 69.437 37.077 69.755 35.321 C 70.07499999999999 33.573 70.419 31.820999999999998 70.791 30.069 C 71.15899999999999 28.317999999999998 71.506 26.558 71.823 24.785999999999998 C 72.14399999999999 23.017 72.30699999999999 21.191999999999997 72.30699999999999 19.304 C 72.30699999999999 17.250999999999998 71.987 15.347999999999999 71.34499999999998 13.594999999999999 C 70.70999999999998 11.844 69.78199999999998 10.318999999999999 68.56799999999998 9.023 C 67.35499999999999 7.724 65.86399999999999 6.715999999999999 64.09599999999999 5.9879999999999995 C 62.32499999999999 5.265 60.33299999999999 4.901999999999999 58.10699999999999 4.901999999999999 L 55.32699999999999 4.901999999999999 L 55.32699999999999 7.0249999999999995 C 55.32699999999999 7.393999999999999 55.46499999999999 7.6819999999999995 55.73399999999999 7.8839999999999995 C 56.00399999999999 8.086 56.28899999999999 8.187999999999999 56.58999999999999 8.187999999999999 L 58.25799999999999 8.187999999999999 C 59.70699999999999 8.187999999999999 61.02899999999999 8.438999999999998 62.225999999999985 8.944999999999999 C 63.41899999999998 9.450999999999999 64.44599999999998 10.174999999999999 65.30499999999998 11.120999999999999 C 66.16799999999998 12.062 66.84099999999998 13.209999999999999 67.32899999999998 14.555 C 67.81599999999997 15.904 68.06299999999997 17.4 68.06299999999997 19.054 C 68.06299999999997 20.976 67.91199999999998 22.842 67.60399999999997 24.662999999999997 C 67.30199999999996 26.480999999999998 66.96899999999997 28.273999999999997 66.59399999999997 30.042999999999996 C 66.22499999999997 31.811999999999994 65.88799999999996 33.583 65.58599999999997 35.352 C 65.28399999999996 37.12 65.12699999999997 38.895999999999994 65.12699999999997 40.681999999999995 C 65.12699999999997 41.92699999999999 65.33299999999997 43.074999999999996 65.73999999999997 44.12 C 66.13999999999997 45.163999999999994 66.68899999999996 46.074 67.37899999999996 46.846999999999994 C 68.06799999999996 47.623999999999995 68.86099999999996 48.269999999999996 69.75299999999996 48.79299999999999 C 70.64499999999995 49.31399999999999 71.58399999999996 49.69199999999999 72.55999999999996 49.931999999999995 C 71.58399999999996 50.132999999999996 70.64499999999995 50.49399999999999 69.75299999999996 51.016999999999996 C 68.86099999999996 51.538 68.06799999999996 52.196999999999996 67.37899999999996 52.986999999999995 C 66.68999999999997 53.78099999999999 66.14499999999997 54.68899999999999 65.73999999999997 55.715999999999994 C 65.32899999999997 56.74499999999999 65.12699999999997 57.882999999999996 65.12699999999997 59.126999999999995 C 65.12699999999997 60.91199999999999 65.28399999999996 62.687999999999995 65.58599999999997 64.461 C 65.88799999999998 66.228 66.22499999999997 68.005 66.59399999999997 69.78999999999999 C 66.96899999999997 71.574 67.30199999999996 73.37599999999999 67.60399999999997 75.198 C 67.91199999999998 77.01499999999999 68.06299999999997 78.86999999999999 68.06299999999997 80.75299999999999 C 68.06299999999997 82.40699999999998 67.81599999999997 83.90299999999999 67.32899999999998 85.25199999999998 C 66.84099999999998 86.60099999999998 66.16399999999997 87.74299999999998 65.30499999999998 88.68999999999998 C 64.44599999999998 89.63299999999998 63.418999999999976 90.35499999999999 62.22599999999998 90.86199999999998 C 61.02999999999998 91.36599999999999 59.70699999999998 91.61899999999999 58.25799999999998 91.61899999999999 L 56.58999999999998 91.61899999999999 C 56.28799999999998 91.61899999999999 55.99899999999998 91.72299999999998 55.73399999999998 91.92299999999999 C 55.46399999999998 92.12399999999998 55.326999999999984 92.41199999999999 55.326999999999984 92.78199999999998 L 55.326999999999984 94.90499999999999 L 58.106999999999985 94.90499999999999 C 60.33099999999999 94.90499999999999 62.325999999999986 94.54299999999999 64.09599999999999 93.82 C 65.86399999999999 93.095 67.35499999999999 92.083 68.56799999999998 90.78699999999999 C 69.77999999999999 89.48899999999999 70.70699999999998 87.964 71.34499999999998 86.211 C 71.98699999999998 84.46 72.30699999999999 82.559 72.30699999999999 80.503 C 72.30699999999999 78.615 72.14399999999999 76.788 71.823 75.021 C 71.506 73.253 71.15899999999999 71.493 70.791 69.741 C 70.422 67.99 70.075 66.237 69.755 64.485 C 69.438 62.732 69.276 60.928 69.276 59.078 C 69.276 57.964 69.463 56.944 69.832 56.014 z" stroke-linecap="round" />
</g>
		<g transform="matrix(0.82 0 0 0.82 46 0.62)" id="SvgjsG1030"  >
<path style="stroke: none; stroke-width: 1; stroke-dasharray: none; stroke-linecap: butt; stroke-dashoffset: 0; stroke-linejoin: miter; stroke-miterlimit: 4; fill: rgb(57,62,70); fill-rule: nonzero; opacity: 1;" vector-effect="non-scaling-stroke"  transform=" translate(-191.06, -24.7)" d="M 7.96 22.32 L 7.96 40 L 14.440000000000001 40 L 14.440000000000001 32.96 C 14.440000000000001 30.400000000000002 14.360000000000001 27.8 14.360000000000001 25.240000000000002 L 14.360000000000001 22.32 L 20.76 22.240000000000002 L 20.76 16.76 L 14.360000000000001 16.8 L 14.360000000000001 8.72 L 8 8.72 L 8 16.84 L 1.5999999999999996 16.84 L 1.5999999999999996 22.32 L 7.96 22.32 z M 21.880000000000003 28.36 C 21.880000000000003 22.2 27.120000000000005 16.84 33.84 16.84 C 40.52 16.84 45.760000000000005 22.2 45.760000000000005 28.36 C 45.760000000000005 29.2 45.68000000000001 30 45.52 30.759999999999998 L 28.840000000000003 30.799999999999997 C 29.720000000000002 32.599999999999994 31.560000000000002 33.879999999999995 33.84 33.879999999999995 C 35.400000000000006 33.879999999999995 36.800000000000004 33.239999999999995 37.760000000000005 32.279999999999994 L 45.040000000000006 32.279999999999994 C 43.400000000000006 36.63999999999999 39.040000000000006 39.919999999999995 33.84 39.919999999999995 C 27.120000000000005 39.919999999999995 21.880000000000003 34.71999999999999 21.880000000000003 28.519999999999996 L 21.880000000000003 28.359999999999996 z M 29.04 25.6 L 28.84 26.16 L 38.96 26.16 L 38.64 25.6 C 37.68 24 35.96 22.880000000000003 33.84 22.880000000000003 C 31.720000000000006 22.880000000000003 29.960000000000004 24.000000000000004 29.040000000000003 25.6 z M 52.56 36.48 C 54.88 38.68 57.64 39.919999999999995 60.96 39.919999999999995 C 67.12 39.919999999999995 72.2 35.519999999999996 72.92 29.839999999999996 L 72.96000000000001 29.399999999999995 L 66.44000000000001 29.399999999999995 L 66.36000000000001 29.719999999999995 C 65.80000000000001 32.16 63.640000000000015 33.8 60.960000000000015 33.8 C 57.76000000000001 33.8 55.44000000000001 31.279999999999998 55.44000000000001 28.279999999999998 C 55.44000000000001 25.319999999999997 57.76000000000001 22.799999999999997 60.96000000000001 22.799999999999997 C 63.36000000000001 22.799999999999997 65.32000000000001 24.08 66.16000000000001 26.159999999999997 L 66.24000000000001 26.399999999999995 L 72.88000000000001 26.399999999999995 L 72.80000000000001 25.959999999999994 C 71.80000000000001 20.639999999999993 66.68 16.679999999999993 60.96000000000001 16.679999999999993 C 54.28000000000001 16.679999999999993 48.96000000000001 22.119999999999994 48.96000000000001 28.279999999999994 C 48.96000000000001 31.479999999999993 50.16000000000001 34.239999999999995 52.56000000000001 36.47999999999999 z M 75.8 9.16 C 75.8 19.16 75.75999999999999 29.64 75.75999999999999 39.64 L 75.75999999999999 40 L 82.24 40 L 82.24 28.16 C 82.24 25.28 84.75999999999999 22.759999999999998 87.83999999999999 22.759999999999998 C 90.79999999999998 22.759999999999998 93.11999999999999 25.04 93.43999999999998 27.759999999999998 C 93.47999999999999 28.159999999999997 93.43999999999998 28.599999999999998 93.43999999999998 28.999999999999996 L 93.47999999999999 31.919999999999995 L 93.47999999999999 39.919999999999995 L 99.96 39.99999999999999 L 99.96 27.959999999999994 C 99.96 25.039999999999992 98.47999999999999 22.159999999999993 96.36 20.119999999999994 C 94.04 17.879999999999995 91.2 16.679999999999993 87.84 16.679999999999993 C 85.84 16.679999999999993 83.92 17.119999999999994 82.16 17.999999999999993 L 82.16 8.799999999999994 L 75.8 8.799999999999994 L 75.8 9.159999999999993 z M 105.52000000000001 36.48 C 107.84 38.68 110.60000000000001 39.919999999999995 113.92000000000002 39.919999999999995 C 120.08000000000001 39.919999999999995 125.16000000000001 35.519999999999996 125.88000000000002 29.839999999999996 L 125.92000000000003 29.399999999999995 L 119.40000000000003 29.399999999999995 L 119.32000000000004 29.719999999999995 C 118.76000000000003 32.16 116.60000000000004 33.8 113.92000000000003 33.8 C 110.72000000000003 33.8 108.40000000000003 31.279999999999998 108.40000000000003 28.279999999999998 C 108.40000000000003 25.319999999999997 110.72000000000003 22.799999999999997 113.92000000000003 22.799999999999997 C 116.32000000000004 22.799999999999997 118.28000000000003 24.08 119.12000000000003 26.159999999999997 L 119.20000000000003 26.399999999999995 L 125.84000000000003 26.399999999999995 L 125.76000000000003 25.959999999999994 C 124.76000000000003 20.639999999999993 119.64000000000003 16.679999999999993 113.92000000000003 16.679999999999993 C 107.24000000000004 16.679999999999993 101.92000000000003 22.119999999999994 101.92000000000003 28.279999999999994 C 101.92000000000003 31.479999999999993 103.12000000000003 34.239999999999995 105.52000000000002 36.47999999999999 z M 129.12 28.36 C 129.12 34.56 134.36 39.92 141.08 39.92 C 147.76000000000002 39.92 153 34.56 153 28.36 C 153 22.2 147.76 16.84 141.08 16.84 C 134.36 16.84 129.12 22.2 129.12 28.36 z M 146.60000000000002 28.36 C 146.60000000000002 31.36 144.28000000000003 33.879999999999995 141.08 33.879999999999995 C 137.88 33.879999999999995 135.52 31.319999999999997 135.52 28.359999999999996 C 135.52 25.439999999999998 137.88000000000002 22.879999999999995 141.08 22.879999999999995 C 144.28 22.879999999999995 146.60000000000002 25.399999999999995 146.60000000000002 28.359999999999996 z M 156.24 17.04 C 156.24 24.56 156.20000000000002 32.08 156.20000000000002 39.64 L 156.20000000000002 40 L 162.68 40 L 162.68 28.16 C 162.68 25.28 165.20000000000002 22.759999999999998 168.28 22.759999999999998 C 171.24 22.759999999999998 173.56 25.04 173.88 27.759999999999998 C 173.92 28.159999999999997 173.88 28.599999999999998 173.88 28.999999999999996 L 173.92 31.919999999999995 L 173.92 39.919999999999995 L 180.39999999999998 39.99999999999999 L 180.39999999999998 27.959999999999994 C 180.39999999999998 25.039999999999992 178.92 22.159999999999993 176.79999999999998 20.119999999999994 C 174.48 17.879999999999995 171.64 16.679999999999993 168.27999999999997 16.679999999999993 C 166.27999999999997 16.679999999999993 164.35999999999999 17.119999999999994 162.59999999999997 17.999999999999993 L 162.59999999999997 16.799999999999994 L 156.23999999999995 16.799999999999994 L 156.23999999999995 17.039999999999992 z M 194.12000000000003 8.8 L 196.08000000000004 8.8 L 196.08000000000004 14.48 L 195.72000000000003 14.52 C 195.12000000000003 14.6 194.20000000000002 14.6 193.32000000000002 14.76 C 192.40000000000003 14.92 191.60000000000002 15.08 191.20000000000002 15.36 C 190.52 15.84 190.12 16.759999999999998 190.12 17.6 L 190.12 24.6 L 194.8 24.6 L 194.8 30.240000000000002 L 190.12 30.240000000000002 L 190.12 40 L 183.6 40 L 183.6 18.48 C 183.6 16.16 183.76 12.32 186.12 10.64 C 188.20000000000002 9.200000000000001 191.72 8.8 194.12 8.8 z M 198.08 32.96 C 198.08 38.56 205.16000000000003 40 209.48000000000002 40 C 213.76000000000002 40 220.16000000000003 38.6 220.16000000000003 33.2 C 220.16000000000003 31.560000000000002 219.68000000000004 30.76 218.72000000000003 29.560000000000002 C 217.92000000000002 28.520000000000003 216.72000000000003 27.76 215.60000000000002 27.200000000000003 C 214.76000000000002 26.76 213.84000000000003 26.400000000000002 212.92000000000002 26.120000000000005 C 212.00000000000003 25.800000000000004 211.08 25.560000000000006 210.20000000000002 25.240000000000006 C 209.72000000000003 25.080000000000005 209.12 24.920000000000005 208.48000000000002 24.680000000000007 C 207.88000000000002 24.480000000000008 207.28000000000003 24.28000000000001 206.92000000000002 24.080000000000005 C 206.72000000000003 23.960000000000004 206.52 23.840000000000007 206.36 23.720000000000006 C 206.20000000000002 23.600000000000005 206.16000000000003 23.480000000000008 206.16000000000003 23.360000000000007 C 206.16000000000003 23.040000000000006 206.48000000000002 22.760000000000005 207.12000000000003 22.520000000000007 C 207.76000000000002 22.320000000000007 208.48000000000005 22.240000000000006 208.92000000000004 22.240000000000006 C 209.60000000000005 22.240000000000006 210.52000000000004 22.400000000000006 211.28000000000006 22.720000000000006 C 212.04000000000005 23.080000000000005 212.52000000000007 23.560000000000006 212.52000000000007 24.200000000000006 L 212.52000000000007 25.240000000000006 L 219.80000000000007 25.200000000000006 L 219.80000000000007 24.080000000000005 C 219.80000000000007 21.720000000000006 218.52000000000007 20.000000000000007 216.60000000000008 18.720000000000006 C 214.24000000000007 17.200000000000006 211.5600000000001 16.720000000000006 208.80000000000007 16.720000000000006 C 204.48000000000008 16.720000000000006 198.28000000000006 18.520000000000007 198.28000000000006 23.800000000000004 C 198.28000000000006 24.720000000000006 198.52000000000007 25.600000000000005 199.00000000000006 26.400000000000006 C 199.40000000000006 27.040000000000006 199.92000000000004 27.760000000000005 200.56000000000006 28.280000000000005 C 201.88000000000005 29.320000000000004 203.88000000000005 30.160000000000004 205.48000000000005 30.680000000000003 C 206.32000000000005 30.960000000000004 207.24000000000004 31.160000000000004 208.08000000000004 31.480000000000004 C 208.56000000000003 31.640000000000004 209.20000000000005 31.800000000000004 209.84000000000003 32.00000000000001 C 210.48000000000002 32.24000000000001 211.04000000000002 32.440000000000005 211.48000000000002 32.64000000000001 C 211.92000000000002 32.88000000000001 212.20000000000002 33.16000000000001 212.20000000000002 33.48000000000001 C 212.20000000000002 33.84000000000001 211.92000000000002 34.08000000000001 211.20000000000002 34.28000000000001 C 210.56000000000003 34.440000000000005 209.8 34.440000000000005 209.36 34.440000000000005 C 208.36 34.440000000000005 207.08 34.32000000000001 206.32000000000002 33.88 C 206.08 33.760000000000005 205.84000000000003 33.56 205.64000000000001 33.36 C 205.44 33.16 205.32000000000002 33 205.32000000000002 32.839999999999996 L 205.28000000000003 31.439999999999998 L 198.04000000000002 31.439999999999998 L 198.04000000000002 31.599999999999998 C 198.08 32.04 198.08 32.48 198.08 32.96 z M 228.4 40.68 C 227 40.68 225.84 40.2 224.84 39.2 C 223.84 38.2 223.36 37.040000000000006 223.36 35.64 C 223.36 34.239999999999995 223.84 33.08 224.84 32.08 C 225.84 31.08 227 30.599999999999998 228.4 30.599999999999998 C 229.8 30.599999999999998 230.96 31.08 231.96 32.08 C 232.96 33.08 233.44 34.239999999999995 233.44 35.64 C 233.44 37.040000000000006 232.96 38.2 231.96 39.2 C 230.96 40.2 229.8 40.68 228.4 40.68 z M 236.64000000000001 28.36 C 236.64000000000001 22.2 241.88000000000002 16.84 248.60000000000002 16.84 C 255.28000000000003 16.84 260.52000000000004 22.2 260.52000000000004 28.36 C 260.52000000000004 29.2 260.44000000000005 30 260.28000000000003 30.759999999999998 L 243.60000000000002 30.799999999999997 C 244.48000000000002 32.599999999999994 246.32000000000002 33.879999999999995 248.60000000000002 33.879999999999995 C 250.16000000000003 33.879999999999995 251.56000000000003 33.239999999999995 252.52 32.279999999999994 L 259.8 32.279999999999994 C 258.16 36.63999999999999 253.8 39.919999999999995 248.60000000000002 39.919999999999995 C 241.88000000000002 39.919999999999995 236.64000000000001 34.71999999999999 236.64000000000001 28.519999999999996 L 236.64000000000001 28.359999999999996 z M 243.8 25.6 L 243.60000000000002 26.16 L 253.72000000000003 26.16 L 253.40000000000003 25.6 C 252.44000000000003 24 250.72000000000003 22.880000000000003 248.60000000000002 22.880000000000003 C 246.48000000000002 22.880000000000003 244.72000000000003 24.000000000000004 243.8 25.6 z M 260.8 16.88 L 270.2 39.959999999999994 L 276.44 39.959999999999994 L 285.88 16.879999999999995 L 278.71999999999997 16.879999999999995 L 273.32 31.199999999999996 L 267.96 16.879999999999995 L 260.79999999999995 16.879999999999995 z M 285.76000000000005 28.36 C 285.76000000000005 22.2 291.00000000000006 16.84 297.72 16.84 C 304.40000000000003 16.84 309.64000000000004 22.2 309.64000000000004 28.36 C 309.64000000000004 29.2 309.56000000000006 30 309.40000000000003 30.759999999999998 L 292.72 30.799999999999997 C 293.6 32.599999999999994 295.44000000000005 33.879999999999995 297.72 33.879999999999995 C 299.28000000000003 33.879999999999995 300.68 33.239999999999995 301.64000000000004 32.279999999999994 L 308.92 32.279999999999994 C 307.28000000000003 36.63999999999999 302.92 39.919999999999995 297.72 39.919999999999995 C 291 39.919999999999995 285.76000000000005 34.71999999999999 285.76000000000005 28.519999999999996 L 285.76000000000005 28.359999999999996 z M 292.92 25.6 L 292.72 26.16 L 302.84000000000003 26.16 L 302.52000000000004 25.6 C 301.56000000000006 24 299.84000000000003 22.880000000000003 297.72 22.880000000000003 C 295.6 22.880000000000003 293.84000000000003 24.000000000000004 292.92 25.6 z M 312.88 17.04 C 312.88 24.56 312.84 32.08 312.84 39.64 L 312.84 40 L 319.32 40 L 319.32 28.16 C 319.32 25.28 321.84 22.759999999999998 324.92 22.759999999999998 C 327.88 22.759999999999998 330.2 25.04 330.52000000000004 27.759999999999998 C 330.56000000000006 28.159999999999997 330.52000000000004 28.599999999999998 330.52000000000004 28.999999999999996 L 330.56000000000006 31.919999999999995 L 330.56000000000006 39.919999999999995 L 337.0400000000001 39.99999999999999 L 337.0400000000001 27.959999999999994 C 337.0400000000001 25.039999999999992 335.56000000000006 22.159999999999993 333.44000000000005 20.119999999999994 C 331.12000000000006 17.879999999999995 328.28000000000003 16.679999999999993 324.9200000000001 16.679999999999993 C 322.9200000000001 16.679999999999993 321.00000000000006 17.119999999999994 319.24000000000007 17.999999999999993 L 319.24000000000007 16.799999999999994 L 312.88000000000005 16.799999999999994 L 312.88000000000005 17.039999999999992 z M 344.08 22.32 L 344.08 40 L 350.56 40 L 350.56 32.96 C 350.56 30.400000000000002 350.48 27.8 350.48 25.240000000000002 L 350.48 22.32 L 356.88 22.240000000000002 L 356.88 16.76 L 350.48 16.8 L 350.48 8.72 L 344.12 8.72 L 344.12 16.84 L 337.72 16.84 L 337.72 22.32 L 344.08000000000004 22.32 z M 358.44 32.96 C 358.44 38.56 365.52 40 369.84 40 C 374.11999999999995 40 380.52 38.6 380.52 33.2 C 380.52 31.560000000000002 380.03999999999996 30.76 379.08 29.560000000000002 C 378.28 28.520000000000003 377.08 27.76 375.96 27.200000000000003 C 375.12 26.76 374.2 26.400000000000002 373.28 26.120000000000005 C 372.35999999999996 25.800000000000004 371.44 25.560000000000006 370.55999999999995 25.240000000000006 C 370.0799999999999 25.080000000000005 369.47999999999996 24.920000000000005 368.8399999999999 24.680000000000007 C 368.2399999999999 24.480000000000008 367.63999999999993 24.28000000000001 367.2799999999999 24.080000000000005 C 367.0799999999999 23.960000000000004 366.87999999999994 23.840000000000007 366.7199999999999 23.720000000000006 C 366.5599999999999 23.600000000000005 366.5199999999999 23.480000000000008 366.5199999999999 23.360000000000007 C 366.5199999999999 23.040000000000006 366.8399999999999 22.760000000000005 367.4799999999999 22.520000000000007 C 368.1199999999999 22.320000000000007 368.8399999999999 22.240000000000006 369.2799999999999 22.240000000000006 C 369.9599999999999 22.240000000000006 370.87999999999994 22.400000000000006 371.63999999999993 22.720000000000006 C 372.3999999999999 23.080000000000005 372.87999999999994 23.560000000000006 372.87999999999994 24.200000000000006 L 372.87999999999994 25.240000000000006 L 380.1599999999999 25.200000000000006 L 380.1599999999999 24.080000000000005 C 380.1599999999999 21.720000000000006 378.87999999999994 20.000000000000007 376.9599999999999 18.720000000000006 C 374.5999999999999 17.200000000000006 371.9199999999999 16.720000000000006 369.1599999999999 16.720000000000006 C 364.8399999999999 16.720000000000006 358.63999999999993 18.520000000000007 358.63999999999993 23.800000000000004 C 358.63999999999993 24.720000000000006 358.87999999999994 25.600000000000005 359.35999999999996 26.400000000000006 C 359.75999999999993 27.040000000000006 360.28 27.760000000000005 360.91999999999996 28.280000000000005 C 362.23999999999995 29.320000000000004 364.23999999999995 30.160000000000004 365.84 30.680000000000003 C 366.67999999999995 30.960000000000004 367.59999999999997 31.160000000000004 368.44 31.480000000000004 C 368.92 31.640000000000004 369.56 31.800000000000004 370.2 32.00000000000001 C 370.84 32.24000000000001 371.4 32.440000000000005 371.84 32.64000000000001 C 372.28 32.88000000000001 372.56 33.16000000000001 372.56 33.48000000000001 C 372.56 33.84000000000001 372.28000000000003 34.08000000000001 371.56 34.28000000000001 C 370.92 34.440000000000005 370.16 34.440000000000005 369.72 34.440000000000005 C 368.72 34.440000000000005 367.44000000000005 34.32000000000001 366.68 33.88 C 366.44 33.760000000000005 366.2 33.56 366 33.36 C 365.8 33.16 365.68 33 365.68 32.839999999999996 L 365.64 31.439999999999998 L 358.4 31.439999999999998 L 358.4 31.599999999999998 C 358.44 32.04 358.44 32.48 358.44 32.96 z" stroke-linecap="round" />
</g>
</g>
</g>
</svg>